<svg width="32" height="32" viewBox="0 0 32 32" fill="none" xmlns="http://www.w3.org/2000/svg">
<rect width="32" height="32" rx="12" fill="#FFCCD3"/>
<path fill-rule="evenodd" clip-rule="evenodd" d="M14.2676 10.002C15.0373 8.66866 16.9625 8.66866 17.7323 10.002L22.635 18.5008C23.4038 19.834 22.4415 21.5 20.9032 21.5H11.0966C9.55793 21.5 8.59509 19.8343 9.36481 18.5008C9.36484 18.5008 9.36478 18.5009 9.36481 18.5008L14.2676 10.002ZM15.1336 10.502L10.231 19.0005C9.84622 19.667 10.3273 20.5 11.0966 20.5H20.9032C21.6717 20.5 22.1533 19.6672 21.7688 19.0004L16.8662 10.502C16.4813 9.83533 15.5185 9.83533 15.1336 10.502ZM15.9999 13.5C16.2761 13.5 16.4999 13.7239 16.4999 14V16.5C16.4999 16.7761 16.2761 17 15.9999 17C15.7238 17 15.4999 16.7761 15.4999 16.5V14C15.4999 13.7239 15.7238 13.5 15.9999 13.5ZM15.4999 18.5C15.4999 18.2239 15.7238 18 15.9999 18H16.0046C16.2807 18 16.5046 18.2239 16.5046 18.5V18.5053C16.5046 18.7815 16.2807 19.0053 16.0046 19.0053H15.9999C15.7238 19.0053 15.4999 18.7815 15.4999 18.5053V18.5Z" fill="#C70036"/>
</svg>
