<svg width="32" height="32" viewBox="0 0 32 32" fill="none" xmlns="http://www.w3.org/2000/svg">
<rect width="32" height="32" rx="12" fill="#FFF085"/>
<path fill-rule="evenodd" clip-rule="evenodd" d="M9.58579 11.0858C9.96086 10.7107 10.4696 10.5 11 10.5H21C21.5304 10.5 22.0391 10.7107 22.4142 11.0858C22.7893 11.4609 23 11.9696 23 12.5V12.6619V19.5C23 20.0304 22.7893 20.5391 22.4142 20.9142C22.0391 21.2893 21.5304 21.5 21 21.5H11C10.4696 21.5 9.96086 21.2893 9.58579 20.9142C9.21071 20.5391 9 20.0304 9 19.5V12.6631V12.5C9 11.9696 9.21071 11.4609 9.58579 11.0858ZM10 12.5V12.6627C10 12.6627 10 12.6626 10 12.6627C10 12.8333 10.0437 13.0014 10.1269 13.1504C10.2101 13.2994 10.3301 13.4246 10.4753 13.5141L15.4753 16.5901C15.633 16.6873 15.8148 16.7388 16 16.7388C16.1852 16.7388 16.3668 16.6874 16.5244 16.5903L21.5244 13.5136C21.6697 13.4241 21.7899 13.2987 21.8731 13.1497C21.9563 13.0007 22 12.8329 22 12.6623C22 12.6622 22 12.6624 22 12.6623V12.5C22 12.2348 21.8946 11.9804 21.7071 11.7929C21.5196 11.6054 21.2652 11.5 21 11.5H11C10.7348 11.5 10.4804 11.6054 10.2929 11.7929C10.1054 11.9804 10 12.2348 10 12.5ZM22 14.3951L17.0489 17.4417C17.0488 17.4418 17.049 17.4417 17.0489 17.4417C16.7336 17.6359 16.3703 17.7388 16 17.7388C15.6297 17.7388 15.2667 17.636 14.9513 17.4419C14.9513 17.4418 14.9514 17.4419 14.9513 17.4419L10 14.3958V19.5C10 19.7652 10.1054 20.0196 10.2929 20.2071C10.4804 20.3946 10.7348 20.5 11 20.5H21C21.2652 20.5 21.5196 20.3946 21.7071 20.2071C21.8946 20.0196 22 19.7652 22 19.5V14.3951Z" fill="#A65F00"/>
</svg>
