<svg width="32" height="32" viewBox="0 0 32 32" fill="none" xmlns="http://www.w3.org/2000/svg">
<rect width="32" height="32" rx="12" fill="#B8E6FE"/>
<path fill-rule="evenodd" clip-rule="evenodd" d="M15.782 8.98207C13.988 8.98207 12.2674 9.69435 10.9988 10.9622C9.7302 12.23 9.01751 13.9496 9.01751 15.7426C9.01751 16.6304 9.19248 17.5096 9.53243 18.3298C9.87238 19.15 10.3707 19.8953 10.9988 20.5231C11.6269 21.1509 12.3727 21.6488 13.1934 21.9886C14.0141 22.3283 14.8937 22.5032 15.782 22.5032C16.6704 22.5032 17.55 22.3283 18.3707 21.9886C19.1914 21.6488 19.9371 21.1509 20.5653 20.5231C21.1934 19.8953 21.6917 19.15 22.0317 18.3298C22.3716 17.5096 22.5466 16.6304 22.5466 15.7426C22.5466 13.9496 21.8339 12.23 20.5653 10.9622C19.2967 9.69435 17.5761 8.98207 15.782 8.98207ZM10.1291 10.093C11.6284 8.59466 13.6618 7.75288 15.782 7.75288C17.9023 7.75288 19.9357 8.59466 21.435 10.093C22.9342 11.5914 23.7765 13.6236 23.7765 15.7426C23.7765 16.7919 23.5697 17.8308 23.168 18.8002C22.7662 19.7695 22.1773 20.6503 21.435 21.3922C20.6926 22.1342 19.8113 22.7227 18.8414 23.1242C17.8715 23.5257 16.8319 23.7324 15.782 23.7324C14.7322 23.7324 13.6926 23.5257 12.7227 23.1242C11.7528 22.7227 10.8715 22.1342 10.1291 21.3922C9.38676 20.6503 8.7979 19.7695 8.39614 18.8002C7.99438 17.8308 7.7876 16.7919 7.7876 15.7426C7.7876 13.6236 8.62987 11.5914 10.1291 10.093ZM15.782 10.2113C16.1217 10.2113 16.397 10.4864 16.397 10.8259V15.128H19.4718C19.8114 15.128 20.0867 15.4032 20.0867 15.7426C20.0867 16.0821 19.8114 16.3572 19.4718 16.3572H15.782C15.4424 16.3572 15.1671 16.0821 15.1671 15.7426V10.8259C15.1671 10.4864 15.4424 10.2113 15.782 10.2113Z" fill="#0069A8"/>
</svg>
