<svg width="32" height="32" viewBox="0 0 32 32" fill="none" xmlns="http://www.w3.org/2000/svg">
<rect width="32" height="32" rx="12" fill="#B9F8CF"/>
<path fill-rule="evenodd" clip-rule="evenodd" d="M21.3633 11.3224C21.4261 11.3701 21.4789 11.4297 21.5187 11.4979C21.5584 11.566 21.5844 11.6413 21.595 11.7195C21.6056 11.7976 21.6007 11.8771 21.5806 11.9534C21.5605 12.0297 21.5255 12.1013 21.4777 12.164L15.0777 20.564C15.0258 20.632 14.9599 20.6882 14.8845 20.7287C14.8091 20.7692 14.7259 20.793 14.6405 20.7987C14.5551 20.8044 14.4695 20.7918 14.3894 20.7616C14.3093 20.7315 14.2365 20.6846 14.1761 20.624L10.5761 17.024C10.4701 16.9103 10.4124 16.7598 10.4151 16.6044C10.4179 16.4489 10.4808 16.3006 10.5908 16.1907C10.7007 16.0808 10.849 16.0178 11.0045 16.0151C11.1599 16.0123 11.3103 16.07 11.4241 16.176L14.5393 19.2904L20.5233 11.4368C20.6196 11.3104 20.7621 11.2273 20.9196 11.2059C21.0771 11.1844 21.2367 11.2263 21.3633 11.3224Z" fill="#008236"/>
</svg>
